<mxfile host="app.diagrams.net" modified="2024-04-09T11:34:10.254Z" agent="Mozilla/5.0 (Windows NT 10.0; Win64; x64) AppleWebKit/537.36 (KHTML, like Gecko) Chrome/123.0.0.0 Safari/537.36 Edg/123.0.0.0" version="24.2.2" etag="Yv_Af5oEggIs76ZJEE7o" type="github">
  <diagram name="第 1 页" id="Spe1te4MerG9Zcj-VB1T">
    <mxGraphModel>
      <root>
        <mxCell id="0" />
        <mxCell id="1" parent="0" />
      </root>
    </mxGraphModel>
  </diagram>
</mxfile>
